# xmcd
#
# Track frame offsets:
#	150
#	13312
#	28943
#	45369
#	58965
#	79455
#	95471
#	111070
#	119946
#	136380
#	152138
#	165965
#	196423
#	210915
#	223365
#	235333
#	244780
#	272052
#	286965
#	300487
#	315629
#
# Disc length: 4371 seconds
#
# Revision: 1
# Processed by: cddbd v1.5.2PL0 Copyright (c) Steve Scherf et al.
# Submitted via: audiograbber 1.83.01
#
DISCID=37111115
DTITLE=Poco - Head Over Heels/Rose Of Cimarron
DYEAR=1975
DGENRE=Country Rock
TTITLE0=Head Over Heels - Keep On Tryin'
TTITLE1=Head Over Heels - Lovin' Arms
TTITLE2=Head Over Heels - Let Me Turn Back To You
TTITLE3=Head Over Heels - Makin' Love
TTITLE4=Head Over Heels - Down In The Quarter
TTITLE5=Head Over Heels - Sittin' On A Fence
TTITLE6=Head Over Heels - Georgia Bind My Ties
TTITLE7=Head Over Heels - Us
TTITLE8=Head Over Heels - Flyin' Solo
TTITLE9=Head Over Heels - Dallas
TTITLE10=Head Over Heels - I'll Be Back Again
TTITLE11=Rose Of Cimarron - Rose Of Cimarron
TTITLE12=Rose Of Cimarron - Stealaway
TTITLE13=Rose Of Cimarron - Just Like Me
TTITLE14=Rose Of Cimarron - Company's Comin'
TTITLE15=Rose Of Cimarron - Slow Poke
TTITLE16=Rose Of Cimarron - Too Many Nights Too Long
TTITLE17=Rose Of Cimarron - P.N.S. (When You Come Around)
TTITLE18=Rose Of Cimarron - Starin' At The Sky
TTITLE19=Rose Of Cimarron - All Alone Together
TTITLE20=Rose Of Cimarron - Tulsa Turnaround
EXTD=
EXTT0=
EXTT1=
EXTT2=
EXTT3=
EXTT4=
EXTT5=
EXTT6=
EXTT7=
EXTT8=
EXTT9=
EXTT10=
EXTT11=
EXTT12=
EXTT13=
EXTT14=
EXTT15=
EXTT16=
EXTT17=
EXTT18=
EXTT19=
EXTT20=
PLAYORDER=
